<!--?xml version="1.0" encoding="utf-8"?-->
<!-- Generator: Adobe Illustrator 24.1.1, SVG Export Plug-In . SVG Version: 6.00 Build 0)  -->
<svg version="1.1" id="Layer_1" xmlns="http://www.w3.org/2000/svg" xmlns:xlink="http://www.w3.org/1999/xlink" x="0px" y="0px" viewBox="0 0 1366 768" style="" xml:space="preserve">
<style type="text/css">
	.st0{fill:none;stroke:#C9AB81;stroke-width:3;stroke-miterlimit:10;}
</style>
<g>
	<path class="st0 zIoXzdLh_0" d="M526.95,396.03c-1.66,5.82-5.07,15.38-7.23,19.28c-3.66,0.83-14.63,3.49-23.85,3.49
		c-32.08,0-46.38-21.19-46.38-40.39c0-25.6,20.7-42.39,49.54-42.39c10.64,0,19.62,2.91,23.11,3.49c1,6.9,1.91,12.13,2.66,19.03
		l-3.74,0.83c-3.41-13.46-11.72-18.78-25.27-18.78c-21.19,0-32.5,17.12-32.5,35.24c0,22.94,14.05,38.23,33.58,38.23
		c12.88,0,19.95-6.9,26.51-19.45L526.95,396.03z"></path>
	<path class="st0 zIoXzdLh_1" d="M573,418.3c-2.33,0-4.99-1.08-6.32-2.41c-1.66-1.58-2.41-3.24-2.99-5.15c-4.99,3.16-10.81,7.56-14.3,7.56
		c-9.23,0-15.29-7.31-15.29-14.96c0-6.07,3.32-9.72,10.06-11.88c7.9-2.49,16.46-5.65,19.12-7.9v-2.16c0-8.73-3.99-13.38-9.89-13.38
		c-2.16,0-3.99,0.83-5.24,2.16c-1.58,1.58-2.66,4.32-3.74,8.23c-0.75,2.16-2.08,2.99-3.99,2.99c-2.41,0-5.65-2.49-5.65-5.4
		c0-1.83,1.58-3.32,3.99-4.99c3.57-2.58,11.97-7.23,18.87-8.56c3.91,0,7.48,0.92,10.31,3.08c4.57,3.82,5.9,8.89,5.9,15.38v21.86
		c0,5.4,2.16,7.23,4.4,7.23c1.41,0,3.08-0.58,4.41-1.33l1.25,3.24L573,418.3z M563.28,387.8c-2.49,1.25-7.48,3.57-10.06,4.74
		c-4.82,2.08-7.48,4.49-7.48,8.98c0,6.4,4.82,9.23,8.48,9.23c2.91,0,6.9-1.83,9.06-3.99V387.8z"></path>
	<path class="st0 zIoXzdLh_2" d="M623.79,416.89v-3.24c7.06-0.75,7.9-1.75,7.9-10.31v-19.78c0-8.48-3.41-13.55-10.97-13.55
		c-4.65,0-9.23,2.91-12.97,5.98v28.09c0,8.31,0.67,8.81,7.81,9.56v3.24h-27.43v-3.24c8.23-1,8.89-1.58,8.89-9.72v-24.44
		c0-7.9-0.83-8.39-7.31-9.56v-3.08c5.9-0.91,12.3-2.49,18.04-4.82v9.81c2.49-1.83,5.15-3.74,8.31-5.82
		c3.49-2.24,6.57-3.57,10.22-3.57c9.81,0,16.04,6.9,16.04,18.95v22.69c0,8.31,0.75,8.64,7.9,9.56v3.24H623.79z"></path>
	<path class="st0 zIoXzdLh_3" d="M682.06,416.64c-2.24,1.25-4.16,1.66-5.24,1.66c-8.23,0-12.8-4.65-12.8-14.46v-34.91h-8.39l-0.58-1.41
		l3.41-3.66h5.57v-8.81l9.06-8.48l1.66,0.33v16.96h13.8c1.25,1.33,0.83,3.99-0.83,5.07h-12.97v30.67c0,9.81,4.24,11.47,7.31,11.47
		c2.91,0,5.65-1.16,7.48-2.08l1.08,3.32L682.06,416.64z"></path>
	<path class="st0 zIoXzdLh_4" d="M740.99,406.09c-7.98,10.06-16.87,12.22-20.86,12.22c-15.21,0-24.19-12.22-24.19-25.77
		c0-8.06,2.91-15.38,7.9-20.78c5.32-5.82,12.05-9.31,18.62-9.31h0.08c10.55,0,18.95,9.06,18.95,18.7c0,2.33-0.66,3.41-2.91,3.91
		c-2.24,0.33-17.7,1.58-32,2.08c0.25,15.71,9.48,22.36,18.04,22.36c5.07,0,9.81-1.91,14.3-6.07L740.99,406.09z M719.54,367.02
		c-5.32,0-10.64,4.74-12.38,14.88c6.57,0,13.13,0,20.03-0.25c2.16-0.08,2.91-0.75,2.91-2.33c0-6.4-3.99-12.3-10.47-12.3H719.54z"></path>
	<path class="st0 zIoXzdLh_5" d="M794.02,406.09c-7.98,10.06-16.87,12.22-20.86,12.22c-15.21,0-24.19-12.22-24.19-25.77
		c0-8.06,2.91-15.38,7.9-20.78c5.32-5.82,12.05-9.31,18.62-9.31h0.08c10.56,0,18.95,9.06,18.95,18.7c0,2.33-0.67,3.41-2.91,3.91
		c-2.24,0.33-17.7,1.58-32,2.08c0.25,15.71,9.48,22.36,18.04,22.36c5.07,0,9.81-1.91,14.29-6.07L794.02,406.09z M772.57,367.02
		c-5.32,0-10.64,4.74-12.38,14.88c6.57,0,13.13,0,20.03-0.25c2.16-0.08,2.91-0.75,2.91-2.33c0-6.4-3.99-12.3-10.47-12.3H772.57z"></path>
	<path class="st0 zIoXzdLh_6" d="M836.82,416.89v-3.24c7.07-0.75,7.9-1.75,7.9-10.31v-19.78c0-8.48-3.41-13.55-10.97-13.55
		c-4.65,0-9.23,2.91-12.97,5.98v28.09c0,8.31,0.67,8.81,7.81,9.56v3.24h-27.43v-3.24c8.23-1,8.89-1.58,8.89-9.72v-24.44
		c0-7.9-0.83-8.39-7.31-9.56v-3.08c5.9-0.91,12.3-2.49,18.04-4.82v9.81c2.49-1.83,5.15-3.74,8.31-5.82
		c3.49-2.24,6.57-3.57,10.22-3.57c9.81,0,16.04,6.9,16.04,18.95v22.69c0,8.31,0.75,8.64,7.9,9.56v3.24H836.82z"></path>
</g>
<g>
	<g>
		<g>
			<g>
				<path class="st0 zIoXzdLh_7" d="M904.61,404.91l-18.57,18.57c-1.38,1.38-1.38,3.62,0,5c0.69,0.69,1.6,1.04,2.5,1.04s1.81-0.35,2.5-1.04
					l18.57-18.57c1.38-1.38,1.38-3.62,0-5C908.23,403.53,905.99,403.53,904.61,404.91z"></path>
				<path class="st0 zIoXzdLh_8" d="M974.6,423.61l-39.17-39.49l5.61-5.61c4.97,2.99,11.4,3.38,14.36,3.38c0.76,0,1.29-0.02,1.51-0.04
					c1.01-0.06,1.95-0.55,2.58-1.35l15.32-19.52c1.21-1.54,0.94-3.76-0.6-4.97c-1.54-1.21-3.76-0.94-4.97,0.6l-14.28,18.19
					c-2.27-0.05-5.81-0.4-8.66-1.56l20.27-20.26c1.38-1.38,1.38-3.62,0-5c-1.38-1.38-3.62-1.38-5,0l-20.28,20.27
					c-1.16-2.83-1.51-6.35-1.56-8.66l18.54-14.26c1.55-1.19,1.84-3.41,0.65-4.96c-1.19-1.55-3.41-1.84-4.96-0.65l-19.89,15.31
					c-0.81,0.63-1.32,1.58-1.37,2.6c-0.06,1.1-0.42,9.65,3.34,15.88l-5.58,5.58l-38.74-39.05c-0.66-0.67-1.56-1.04-2.5-1.05h-0.01
					c-0.94,0-1.84,0.37-2.5,1.04l-0.53,0.53c-0.59,0.59-0.95,1.36-1.02,2.19c-0.1,1.07-0.14,2.18-0.14,3.28
					c0.07,11.75,5.91,25.51,17.34,40.91c8.36,11.26,16.58,19.1,16.93,19.43c0.76,0.72,1.79,1.07,2.83,0.95l6.98-0.79
					c1.94-0.22,3.34-1.97,3.12-3.91c-0.22-1.94-1.97-3.34-3.91-3.12l-5.3,0.6c-5.31-5.33-27.2-28.4-30.5-49.21l77.08,77.7
					c0.69,0.7,1.6,1.05,2.51,1.05c0.9,0,1.8-0.34,2.49-1.03C975.96,427.24,975.97,425,974.6,423.61z"></path>
			</g>
		</g>
	</g>
	<g>
	</g>
	<g>
	</g>
	<g>
	</g>
	<g>
	</g>
	<g>
	</g>
	<g>
	</g>
	<g>
	</g>
	<g>
	</g>
	<g>
	</g>
	<g>
	</g>
	<g>
	</g>
	<g>
	</g>
	<g>
	</g>
	<g>
	</g>
	<g>
	</g>
</g>
<style data-made-with="vivus-instant">.zIoXzdLh_0{stroke-dasharray:418 420;stroke-dashoffset:419;animation:zIoXzdLh_draw 2000ms linear 0ms forwards;}.zIoXzdLh_1{stroke-dasharray:315 317;stroke-dashoffset:316;animation:zIoXzdLh_draw 2000ms linear 125ms forwards;}.zIoXzdLh_2{stroke-dasharray:353 355;stroke-dashoffset:354;animation:zIoXzdLh_draw 2000ms linear 250ms forwards;}.zIoXzdLh_3{stroke-dasharray:223 225;stroke-dashoffset:224;animation:zIoXzdLh_draw 2000ms linear 375ms forwards;}.zIoXzdLh_4{stroke-dasharray:291 293;stroke-dashoffset:292;animation:zIoXzdLh_draw 2000ms linear 500ms forwards;}.zIoXzdLh_5{stroke-dasharray:291 293;stroke-dashoffset:292;animation:zIoXzdLh_draw 2000ms linear 625ms forwards;}.zIoXzdLh_6{stroke-dasharray:353 355;stroke-dashoffset:354;animation:zIoXzdLh_draw 2000ms linear 750ms forwards;}.zIoXzdLh_7{stroke-dasharray:75 77;stroke-dashoffset:76;animation:zIoXzdLh_draw 2000ms linear 875ms forwards;}.zIoXzdLh_8{stroke-dasharray:659 661;stroke-dashoffset:660;animation:zIoXzdLh_draw 2000ms linear 1000ms forwards;}@keyframes zIoXzdLh_draw{100%{stroke-dashoffset:0;}}@keyframes zIoXzdLh_fade{0%{stroke-opacity:1;}94.44444444444444%{stroke-opacity:1;}100%{stroke-opacity:0;}}</style></svg>
